<?xml version="1.0" encoding="utf-8"?>
<!-- Generator: Adobe Illustrator 21.0.2, SVG Export Plug-In . SVG Version: 6.00 Build 0)  -->
<svg version="1.1" id="Layer_1" xmlns="http://www.w3.org/2000/svg" xmlns:xlink="http://www.w3.org/1999/xlink" x="0px" y="0px"
	 viewBox="0 0 1000 511" style="enable-background:new 0 0 1000 511;" xml:space="preserve">
<style type="text/css">
	.st0{fill:#333333;}
	.st1{clip-path:url(#SVGID_2_);}
	.st2{fill:#6B8FAA;}
</style>
<rect x="-1" y="-0.1" class="st0" width="1005.2" height="511.2"/>
<g>
	<defs>
		<rect id="SVGID_1_" width="1000" height="511.7"/>
	</defs>
	<clipPath id="SVGID_2_">
		<use xlink:href="#SVGID_1_"  style="overflow:visible;"/>
	</clipPath>
	<g class="st1">
		<path class="st2" d="M0,0v5.3C2.9,3.6,5.7,1.8,8.5,0H0z"/>
		<path class="st2" d="M37.9,0h-10C19.3,6.8,10.1,13.1,0,19v8C14.1,18.9,26.6,9.9,37.9,0z"/>
		<path class="st2" d="M67,0h-1.3C48.1,20.6,26.7,38.3,0,53.2v1.3C27.3,39.3,49.1,21.2,67,0z"/>
		<path class="st2" d="M98.1,0H94C72,35.1,42.4,63.8,0,86.6v5.4C45,67.9,75.6,37.5,98.1,0z"/>
		<path class="st2" d="M118,0h-5.5C89,46.9,54.8,84,0,112.7v8.2C58.8,90.3,94.1,50.6,118,0z"/>
		<path class="st2" d="M136.3,0h-2.1C110.3,63,72.1,111.2,0,148v3.5C73.9,113.9,112.4,64.5,136.3,0z"/>
		<path class="st2" d="M154.1,16.1c1.7-5.3,3.4-10.7,5-16.1h-2.7c-1.3,4.4-2.7,8.7-4.2,13C129.9,85.3,91.6,140.5,10.3,183.9
			c-3.4,1.7-6.8,3.4-10.3,5v5c4.5-2.1,8.8-4.2,13-6.4C93.9,143.6,132,88.4,154.1,16.1z"/>
		<path class="st2" d="M163.4,32c3.2-10.4,6.1-21,8.8-32h-1.7c-2.6,10.3-5.4,20.3-8.4,30c-20.6,72.1-57.2,128.1-136.2,173.8
			C17.7,208.4,9.1,212.8,0,217v3.3c9.8-4.6,19-9.3,27.7-14.2C106.5,160.2,143,104.1,163.4,32z"/>
		<path class="st2" d="M174,48.7c4.4-15.6,8.2-31.8,11.6-48.7h-4.7c-3.2,14.8-6.8,29.1-10.8,42.9c-19.2,72-54.4,128.5-131.7,176
			c-11.8,6.9-24.5,13.6-38.3,20v10.1c16.2-7.5,30.8-15.3,44.2-23.4C120.7,177.4,155.3,120.6,174,48.7z"/>
		<path class="st2" d="M182,60.6c5.1-19.2,9.2-39.4,12.9-60.6h-1.2c-3.7,20.6-7.9,40.3-12.9,59.1c-17.5,71.7-50.8,129-125.7,178.7
			C38.9,248.1,20.7,258.1,0,267.6v2.6c21.4-9.8,40.1-20.1,56.8-30.8C131.4,189.6,164.6,132.3,182,60.6z"/>
		<path class="st2" d="M194.3,77.5c5.8-24.3,10-50.2,13.8-77.5h-2c-3.8,26.4-8.2,51.4-13.9,75c-15.6,71.4-47,129.3-119.4,181.1
			C52.3,270.2,28.4,283.9,0,296.8v4.6c29.7-13.4,54.5-27.7,75.8-42.5C147.8,206.8,178.9,148.8,194.3,77.5z"/>
		<path class="st2" d="M204.5,90.3C210.6,62.1,214.6,32,218.3,0h-3.1c-3.7,30.6-8,59.4-14,86.4c-14.3,71.2-44.1,129.5-114.6,182.7
			C62.8,286.3,34.7,303,0,318.6v7.5c37-16.6,66.6-34.4,91.4-52.7C161.3,219.8,190.6,161.3,204.5,90.3z"/>
		<path class="st2" d="M114.4,293.1c66.7-55.9,93.7-114.9,105.3-185.5c6.1-33.4,9.5-69.2,12.6-107.6h-0.8
			c-3.2,38-6.7,73.6-12.9,106.7C207,177.3,180,236.3,113.1,292.1c-29,23.4-65.2,46.1-113.1,67.6v2
			C48.6,339.9,85.2,316.8,114.4,293.1z"/>
		<path class="st2" d="M135.4,309.1c63.9-57.7,88.6-117.1,98.2-187.2c5.9-37.6,8.2-78.2,10.7-121.9h-3.5
			c-2.7,42.2-5.4,81.4-11.5,117.8c-10.1,70.2-35.4,129.6-100.1,186.8C97.4,331.7,56.4,358.4,0,383.7v9.1
			C59.8,365.9,102.6,337.7,135.4,309.1z"/>
		<path class="st2" d="M149.1,318.6c62.1-58.7,85.4-118.4,93.7-188.1c5.5-40.2,7-83.6,9-130.5h-1.6c-2.1,46.2-3.9,89-9.6,128.7
			c-8.5,69.8-32,129.4-94.5,187.9C111.7,347.8,65.9,378.7,0,408.4v4.2C67.6,382.2,114.2,350.5,149.1,318.6z"/>
		<path class="st2" d="M171.9,332.8c59.2-60.3,80.1-120.2,86.4-189.3C263,99.4,262.9,51.7,264,0h-2.4c-1.3,50.8-1.6,97.7-6.6,141
			c-6.6,69.2-27.9,129.1-87.7,189.1C130,366.4,78.3,402.8,0,438.4v6.4C81.1,407.8,134,370.3,171.9,332.8z"/>
		<path class="st2" d="M195.1,345.5c56.2-61.6,74.9-121.8,79-190.1c3.7-47.7,1.8-99.3,1.8-155.4h-0.3c-0.1,56,1.8,107.5-2.1,155
			c-4.1,68.4-22.8,128.5-79.1,190.1C154.1,388.1,95.3,431.7,0,475.9v0.9C95.7,432.4,154.7,388.6,195.1,345.5z"/>
		<path class="st2" d="M208.5,352c54.6-62.3,71.9-122.5,74.9-190.5c3-49.6-0.1-103.2-0.7-161.5h-1.5c0.4,57.9,3.3,111-0.1,160.2
			c-3.2,68.1-20.7,128.2-75.6,190.4C164.2,396.2,102.5,442.9,0,490.9v4C104.4,445.8,166.9,398.3,208.5,352z"/>
		<path class="st2" d="M229,360.9c52.1-63.3,67.4-123.5,68.6-190.8c1.8-52.2-3.2-108.6-4.7-170.1h-3.2c1.2,60.5,5.6,116.1,3.2,167.4
			c-1.7,67.5-17.6,127.7-70.5,190.7C179.7,407.8,113.8,459.2,0,513.4v8.6C118.3,465.3,185.8,412.1,229,360.9z"/>
		<path class="st2" d="M242.1,365.8c50.5-63.8,64.6-124,64.7-190.9c1-53.7-5.3-111.6-7.4-174.9h-1.4c2,62.9,8,120.5,6.6,173.9
			c-0.3,66.9-14.6,127.2-65.5,190.9C195.2,418.4,125.3,474.5,0,535.2v3.8C127.3,477.1,198,420.1,242.1,365.8z"/>
		<path class="st2" d="M266.9,374c47.6-64.7,59.4-124.9,57.5-190.8C323.7,126.9,315,66.3,311.6,0h-3.8c3,65.4,10.9,125.2,10.9,180.7
			c1.3,66.2-11.1,126.4-59.6,190.9C214.2,429.9,139.6,491.8,0,561.1v10C145.2,498.3,221.6,434.1,266.9,374z"/>
		<path class="st2" d="M282.4,378.2c45.8-65.2,56.2-125.2,53.1-190.6C333.6,129.8,323.4,67.9,319.2,0h-0.8
			c4,67.7,14.2,129.5,15.7,187.1c3.1,65.5-7.4,125.5-53.4,190.7c-45.5,63-124.4,130.9-278.3,209.6h4
			C158.9,508.7,237.2,441,282.4,378.2z"/>
		<path class="st2" d="M298.4,381.9c44-65.7,53-125.5,48.6-190.3c-3-59-15-122.2-19.9-191.5h-1.4c4.8,69,16.4,132,19,190.8
			c4.2,64.9-5,124.8-49.2,190.4c-42.6,61.6-116.3,128.2-258.4,206.1h6.4C183.6,509.6,256.4,443.2,298.4,381.9z"/>
		<path class="st2" d="M309.8,384.1c42.7-65.9,50.7-125.7,45.5-190.1c-3.9-59.9-17-123.8-22.5-194h-2.1
			c5.3,69.9,17.9,133.6,21.3,193.1c5,64.5-3.3,124.3-46.5,190.2c-40.8,60.7-111.3,126.6-246.5,204h8.7
			C200.4,510.1,269.8,444.5,309.8,384.1z"/>
		<path class="st2" d="M324.4,386.5c41.1-66.3,47.9-125.9,41.6-189.7C360.9,136,346.3,71.1,340.2,0h-0.3
			c6.1,71.1,20.6,135.9,25.4,196.7c6.3,63.8-0.4,123.4-41.6,189.7c-37.8,59.4-103.4,124.2-228.3,200.9h1.2
			C221.2,510.6,286.7,445.9,324.4,386.5z"/>
		<path class="st2" d="M344.4,388.9c39-66.6,44-126,36.3-189c-6.7-62-23.2-127.7-30.3-199.9h-1.5c7,72,23.3,137.7,29.5,199.5
			c7.6,63.1,2.4,122.5-36.9,189.1c-35.3,58.4-96.8,122.4-213.4,198.7h5C248.6,511.1,309.5,447.2,344.4,388.9z"/>
		<path class="st2" d="M360.1,390.2c37.4-66.8,41.1-126,32.3-188.4c-7.8-62.1-25.7-127.8-33.7-199.7c-0.1-0.7-0.2-1.4-0.2-2.1h-2.3
			c0,0.3,0.1,0.6,0.1,0.8c7.7,72.3,25.3,138.2,32.6,200.5c8.6,62.6,4.5,121.8-33.3,188.6c-33.5,57.8-92.2,121.3-203.4,197.4h7.2
			C269.2,511.2,327.1,447.8,360.1,390.2z"/>
		<path class="st2" d="M404.9,203.3c-9-61.5-27.8-126.1-36.8-196.7c-0.3-2.2-0.6-4.4-0.8-6.6h-1c0.2,2,0.5,4.1,0.8,6.1
			c8.8,70.8,27.6,135.5,36.3,197.1c9.9,61.8,7.4,120.7-28.5,187.7c-31.3,57.2-86.8,120.2-191.9,196.4h2.9
			C290.4,511.1,345.6,448.1,376.7,391C412.4,323.9,414.9,265.1,404.9,203.3z"/>
		<path class="st2" d="M422.7,204.6c-10.5-60.6-30.7-123.7-41-192.5c-0.6-4-1.2-8.1-1.8-12.1h-1.5c0.5,3.9,1.1,7.7,1.7,11.5
			c10.1,69,30.2,132.3,40.3,193c11.4,60.9,10.6,119.4-23,186.7c-29,56.7-81.3,119.6-180.9,196.1h3.9c99-76.6,151-139.5,179.8-196.2
			C433.6,323.9,434.2,265.4,422.7,204.6z"/>
		<path class="st2" d="M434.1,204.9c-11.5-60-32.4-122.2-43.5-189.8c-0.9-5-1.6-10-2.4-15.1h-1c0.7,4.9,1.5,9.9,2.3,14.8
			c11,67.7,31.9,130.1,43,190.2c12.4,60.2,12.7,118.5-19.4,185.8c-27.6,56.5-78,119.5-174.6,196.6h2.5
			c96.3-77.2,146.6-140.1,174-196.7C447,323.3,446.5,265.1,434.1,204.9z"/>
		<path class="st2" d="M446.8,204.8C434.3,145.5,412.6,84.2,400.7,18c-1.1-6-2.1-11.9-3.1-18h-3.3c0.9,5.7,1.8,11.4,2.8,17
			c11.6,66.7,33.1,128.3,45,187.9c13.1,59.7,14.4,117.8-16.6,185.2c-26.6,56.5-75.7,119.6-170.4,197.2h7.5
			c93.9-77.9,142.5-141.1,168.7-197.6C461.8,322.2,460.2,264.3,446.8,204.8z"/>
		<path class="st2" d="M456.2,204.5c-13.1-58.8-35.5-119.3-48-184.7c-1.3-6.6-2.5-13.2-3.6-19.8h-0.9c1.1,6.6,2.3,13.1,3.5,19.6
			c12.4,65.4,34.7,126,47.6,185c14.1,59.1,16.5,116.8-13,184.2c-25.3,56.6-72.9,120-165.6,198.5h1.9
			c92.5-78.7,140-142.1,165.3-198.7C472.8,321.2,470.3,263.5,456.2,204.5z"/>
		<path class="st2" d="M470.4,203.6c-14.1-58.1-37.3-117.5-50.6-181.4c-1.6-7.3-3-14.7-4.3-22.2h-1.6c1.3,7.3,2.7,14.6,4.2,21.9
			c13.2,64.1,36.2,123.7,50,181.9c15,58.4,18.5,115.7-9.5,183.2c-24.1,56.7-70.4,120.6-161.6,200.3h3.2
			c90.9-79.9,137.1-143.9,161-200.6C489.2,319.2,485.5,261.8,470.4,203.6z"/>
		<path class="st2" d="M482,202.5c-14.9-57.5-38.6-116-52.6-178.8C427.6,15.9,426,8,424.5,0h-2.8c1.4,7.8,3,15.6,4.7,23.3
			c13.8,63.1,37.3,121.9,51.8,179.6c15.6,57.8,20,115-6.9,182.5c-23.3,57-68.7,121.3-159,202h5.2c90-81.1,135.2-145.6,158.2-202.6
			C502.4,317.2,497.8,260.1,482,202.5z"/>
		<path class="st2" d="M498.8,200.4c-15.9-56.7-40.5-113.9-55.2-175c-2.1-8.4-4-16.9-5.7-25.4h-0.8c1.7,8.5,3.6,17,5.6,25.4
			c14.7,61.2,39.2,118.5,54.9,175.2c16.8,56.8,22.7,113.5-2.3,180.9c-21.8,57.5-65.9,122.8-155.2,205.8h1.3
			c89.3-83,133.3-148.4,155.1-206C521.5,313.8,515.6,257.2,498.8,200.4z"/>
		<path class="st2" d="M514,198.2c-16.8-55.9-42-112.1-57.3-171.6c-2.3-8.8-4.4-17.6-6.3-26.5h-3.7c1.8,8.8,3.9,17.6,6.1,26.3
			c15.2,60,40.2,116.5,56.5,172.7c17.5,56.2,24.2,112.6,0.3,180c-21,57.9-64.4,123.9-153.5,208.4h6c89.1-85,132.2-151.4,153-209.4
			C538.6,310.4,531.7,254.2,514,198.2z"/>
		<path class="st2" d="M523.9,196.5C506.6,141.1,481.1,85.6,465.3,27c-2.5-8.9-4.7-17.9-6.7-27h-1.8c2,9,4.2,18,6.6,26.9
			c15.6,58.8,41.1,114.4,58.1,170c18.1,55.6,25.6,111.6,2.9,179.1c-20.2,58.4-63,125.2-152.1,211.4h2.7
			c89.2-86.4,131.9-153.4,152-211.9C549.7,308,542.1,252,523.9,196.5z"/>
		<path class="st2" d="M540.3,193.4c-18-54.6-44.2-108.9-60.4-165.9c-2.7-9.1-5.1-18.3-7.2-27.5h-2.8c2.1,9.2,4.5,18.3,7.1,27.4
			c16.1,57.4,42.2,111.8,59.9,166.7c18.8,54.8,27.3,110.5,5.8,177.9c-19.4,59-61.5,127-151,215.4h4.1
			c89.6-88.9,131.6-157.1,150.8-216.3C567.8,303.7,559.2,248.1,540.3,193.4z"/>
		<path class="st2" d="M557,189.9C538.2,136.1,511.7,83,495,27.6c-2.8-9.1-5.4-18.3-7.6-27.6H487c2.2,9.2,4.8,18.4,7.6,27.6
			c16.7,55.5,43.2,108.6,61.8,162.5c19.7,53.9,29.2,109.1,9.2,176.4c-18.3,59.9-59.8,129.4-150.2,220.8h0.6
			c90.4-91.6,131.9-161,150.3-221C586.1,299,576.6,243.8,557,189.9z"/>
		<path class="st2" d="M566.6,187.8C547.5,134.5,520.7,82,503.8,27.5c-2.9-9.1-5.5-18.3-7.8-27.5h-1.9c2.3,9.2,4.9,18.4,7.8,27.5
			c16.8,54.8,43.6,107.3,62.4,160.8c19.9,53.5,29.9,108.5,10.5,175.8c-17.9,60.3-59.2,130.4-150.1,223.2h2.5
			c91-93.2,132.3-163.4,150.1-223.8C596.5,296.2,586.5,241.3,566.6,187.8z"/>
		<path class="st2" d="M581.4,184.5c-19.6-52.7-46.6-104.1-63.7-157.3c-3-9-5.7-18.1-8-27.2h-4.4c2.4,9.1,5,18.2,8,27.3
			c17,53.6,44,105.3,63.3,158.3c20.3,52.9,30.9,107.6,12.3,174.9c-17.4,60.9-58.4,132-150.2,226.8h5.3
			c92.1-95.7,133-167.1,150.3-228.3C612.5,291.8,601.8,237.2,581.4,184.5z"/>
		<path class="st2" d="M590.8,182.3C571,130,543.7,79.2,526.5,26.9c-3-8.9-5.7-17.9-8.1-26.9h-2c2.4,9,5.1,18,8.1,27
			c17.2,52.5,44.4,103.4,64,155.8c20.7,52.4,31.7,106.8,13.9,174c-16.9,61.5-57.7,133.5-150.4,230.5h2.3
			c92.8-97.3,133.6-169.6,150.5-231.1C622.5,289,611.5,234.6,590.8,182.3z"/>
		<path class="st2" d="M608.9,178c-20.3-51.5-47.7-101-65-151.7c-3.1-8.7-5.8-17.5-8.3-26.3h-5.5c2.4,8.8,5.2,17.7,8.2,26.5
			c17.3,51.2,44.7,101.1,64.6,152.9c21,51.7,32.6,105.8,15.6,173c-16.4,62.2-57,135.4-150.9,234.9h6
			c94.4-100.5,135-174.3,151.2-236.7C641.7,283.5,630,229.5,608.9,178z"/>
		<path class="st2" d="M620.2,175.2c-20.5-51-47.9-99.8-65.3-149.4c-3.1-8.6-5.8-17.2-8.3-25.8h-1.2c2.4,8.6,5.2,17.2,8.3,25.9
			c17.3,49.7,44.8,98.6,65.1,149.7c21.3,51,33.4,104.8,17.2,171.9c-15.9,62.9-56.4,137.5-151.7,239.8h1.2
			C581,484.8,621.5,410.1,637.4,347.1C653.6,280,641.5,226.3,620.2,175.2z"/>
		<path class="st2" d="M630.7,172.7c-20.6-50.6-48.1-98.7-65.4-147.4c-3.1-8.5-5.9-16.9-8.3-25.3h-2.1c2.4,8.5,5.2,17,8.3,25.4
			c17.3,48.9,44.8,97.2,65.2,147.9c21.5,50.6,33.8,104.2,18,171.3c-15.6,63.4-56,138.7-152.3,242.7h2.2
			c96.4-104.4,136.9-179.9,152.4-243.4C664.5,276.8,652.1,223.3,630.7,172.7z"/>
		<path class="st2" d="M639.2,170.7C618.5,120.5,591,72.9,573.7,25c-3.1-8.3-5.8-16.7-8.3-25h-3.1c2.4,8.4,5.2,16.7,8.3,25.1
			c17.3,48.2,44.8,96,65.3,146.4c21.6,50.3,34.1,103.7,18.6,170.8c-15.4,63.7-55.8,139.6-152.8,245h3.1
			c97.3-105.9,137.7-182.1,153-245.9C673.3,274.3,660.7,220.9,639.2,170.7z"/>
		<path class="st2" d="M650.1,168.1c-20.8-49.8-48.3-96.7-65.4-143.6c-3.1-8.2-5.8-16.4-8.2-24.5H576c2.4,8.2,5.2,16.3,8.2,24.5
			c17.2,47,44.6,94,65.3,143.8c21.7,49.7,34.5,102.9,19.4,170c-15.1,64.3-55.5,141.3-153.8,249h0.5
			c98.3-107.8,138.7-184.8,153.9-249.2C684.5,271,671.7,217.9,650.1,168.1z"/>
		<path class="st2" d="M665.4,164.7c-20.9-49.1-48.2-95.1-65.2-140.8c-3-8-5.8-16-8.1-23.9h-2.2c2.4,8,5.1,16,8.2,24
			c17,45.9,44.4,91.9,65.1,141.2c21.7,49.2,34.8,102.1,20.1,169.2c-14.9,64.9-55.3,142.9-154.9,252.9h2.1
			c99.8-110.5,140.3-188.6,155.1-253.6C700.1,266.6,687,213.8,665.4,164.7z"/>
		<path class="st2" d="M677.4,162c-20.9-48.7-48.1-93.9-64.8-138.5c-3-7.9-5.7-15.7-8.1-23.5H601c2.4,7.8,5.1,15.7,8.1,23.6
			c16.8,44.9,44.1,90.3,64.8,139.2c21.7,48.8,34.9,101.4,20.5,168.5c-14.7,65.3-55.2,144.1-155.8,256h3.2
			c101-112.5,141.4-191.5,156.1-256.9C712.3,263.3,699.1,210.6,677.4,162z"/>
		<path class="st2" d="M690.5,159.2c-20.8-48.2-47.8-92.6-64.3-136.1c-3-7.7-5.7-15.4-8-23.1h-1.6c2.3,7.7,5,15.4,8,23.1
			c16.5,43.6,43.5,88.2,64.2,136.5c21.7,48.2,35,100.6,20.8,167.7c-14.6,65.8-55.1,145.6-157.2,260h1.4
			C656,472.7,696.6,392.8,711.2,326.9C725.3,259.8,712.1,207.3,690.5,159.2z"/>
		<path class="st2" d="M709.3,155.5C688.7,108,662,64.7,646.1,22.7c-3-7.6-5.6-15.2-7.9-22.7h-2.4c2.2,7.5,4.9,15.1,7.9,22.7
			c16,42.1,42.7,85.6,63.2,133.2c21.5,47.5,34.8,99.6,20.9,166.9c-14.5,66.4-55.2,147.3-158.8,264.5h2
			c103.8-117.5,144.5-198.6,159.1-265C744,255,730.7,202.9,709.3,155.5z"/>
		<path class="st2" d="M721.4,153.2c-20.5-47-46.8-89.7-62.4-130.6c-3-7.6-5.6-15.2-7.8-22.6h-1.6c2.2,7.5,4.8,15,7.8,22.6
			c15.6,41.1,42,83.8,62.3,130.9c21.4,47,34.6,98.9,20.7,166.3c-14.5,66.8-55.3,148.5-160,267.5h1.3
			c104.8-119.3,145.7-201,160.2-267.8C755.9,252.1,742.7,200.2,721.4,153.2z"/>
		<path class="st2" d="M735,150.9c-20.2-46.6-46.2-88.4-61.3-128.2c-3-7.6-5.6-15.2-7.7-22.6h-5.3c2.2,7.4,4.8,15,7.7,22.6
			c15.3,40.2,41.4,82.3,61.6,129.2c21.2,46.6,34.4,98.4,20.5,165.8c-14.6,67-55.5,149.3-161,269.7h4.2
			c105.9-121.1,146.8-203.6,161.5-270.8C769.2,249.1,756.1,197.4,735,150.9z"/>
		<path class="st2" d="M745.3,149.3c-20-46.2-45.7-87.5-60.4-126.5c-3-7.7-5.5-15.3-7.6-22.8h-1.4c2.1,7.5,4.7,15.1,7.6,22.7
			c14.8,39.1,40.5,80.5,60.4,126.8c20.9,46.2,34,97.7,20,165.3c-14.7,67.3-55.7,150.3-162.3,272.5h1.1
			c106.6-122.4,147.7-205.4,162.4-272.8C779.1,247,766.1,195.4,745.3,149.3z"/>
		<path class="st2" d="M760.9,147C741.3,101.3,716.1,61,702,23.1c-3-7.9-5.5-15.6-7.5-23.1h-2.6c2,7.6,4.6,15.2,7.6,23.1
			c14.2,38,39.4,78.5,59,124.3c20.6,45.7,33.4,97,19.3,164.7c-14.9,67.6-56.1,151.2-163.6,275.2h2C723.8,463,765.1,379.4,780,311.7
			C794.1,244,781.4,192.6,760.9,147z"/>
		<path class="st2" d="M773.8,145.4c-19.3-45.3-44-84.9-57.5-121.8c-3-8-5.6-15.9-7.5-23.6h-4.4c1.9,7.7,4.5,15.5,7.5,23.5
			c13.7,37.1,38.6,77,57.8,122.5c20.3,45.3,32.9,96.5,18.7,164.3c-15,67.8-56.4,151.8-164.5,277h3.4
			c108.3-125.7,149.8-209.8,164.9-277.7C806.4,241.8,793.9,190.6,773.8,145.4z"/>
		<path class="st2" d="M792.9,143.4C774.1,98.7,750.1,60,737.6,24.7C734.5,16.2,732,8,730.3,0h-1.2c1.7,8,4.2,16.2,7.3,24.6
			C749,60.1,773,98.8,791.6,143.5c19.7,44.6,31.8,95.6,17.1,163.6c-15.5,68-57.2,152.7-166.4,280.1h0.9
			C752.5,459.8,794.2,375.1,809.7,307C824.5,238.9,812.4,187.9,792.9,143.4z"/>
		<path class="st2" d="M810.4,141.9C792.3,97.8,769,60,757.4,26c-3.2-8.9-5.5-17.6-7-26h-6c1.5,8.2,4,16.8,7.1,25.5
			C763.4,60,786.9,98,805.1,142.4c19.2,44.1,31,95,15.9,163.3c-15.8,68.1-57.7,153.2-167.4,281.7h4.3
			c109.8-128.9,151.8-214.1,167.8-282.2C841,236.7,829.4,185.9,810.4,141.9z"/>
		<path class="st2" d="M822.1,141.1C804.4,97.4,781.6,60.2,770.6,27c-3.2-9.3-5.5-18.3-6.7-27H761c1.3,8.6,3.6,17.5,6.8,26.7
			c11.2,33.4,34,70.7,51.7,114.6c18.7,43.7,30,94.4,14.6,162.9c-16.2,68.1-58.3,153.5-168.4,283h2.1
			C777.8,457.6,820,372.2,836.3,304C851.8,235.5,840.6,184.8,822.1,141.1z"/>
		<path class="st2" d="M841.7,140.2C824.8,97,802.9,60.8,793.1,29c-3.3-10.2-5.3-19.8-6-29h-4.8c0.8,9.1,2.9,18.6,6.2,28.5
			c10.1,32.1,32.2,68.5,49.1,111.9c18,43.2,28.7,93.7,12.7,162.5c-16.8,68.1-59.2,153.8-169.6,284.3h3.3
			c110.5-130.8,153-216.5,169.9-284.6C870,233.8,859.5,183.3,841.7,140.2z"/>
		<path class="st2" d="M862.1,139.7c-16-42.6-36.9-77.8-45.5-108.2c-3.3-11.2-5-21.7-4.7-31.5h-0.7c-0.3,9.8,1.4,20.2,4.7,31.4
			c8.7,30.5,29.5,65.7,45.4,108.4c17,42.5,26.8,92.8,9.8,162.1c-17.6,68-60.3,153.8-170.9,285.4h0.5
			c110.6-131.6,153.4-217.4,171-285.4C888.8,232.6,879,182.2,862.1,139.7z"/>
		<path class="st2" d="M874.1,139.7c-15.5-42.3-35.7-76.9-43.5-106.6c-3.3-11.9-4.6-22.9-3.5-33.1h-3.4c-0.9,10.1,0.5,21,3.8,32.7
			c8,29.9,28.4,64.6,43.8,107c16.6,42.2,26,92.4,8.5,162c-17.9,67.9-60.9,153.7-171.4,285.6h2.2
			c110.6-131.9,153.5-217.8,171.6-285.6C899.8,232.1,890.5,181.9,874.1,139.7z"/>
		<path class="st2" d="M892.9,139.9c-14.6-41.8-33.8-75.5-40.4-104c-3.2-13.2-3.8-25.1-0.9-35.9h-8.1c-2.3,10.6-1.4,22.2,1.8,35
			c7,28.9,26.5,62.8,41.2,104.9c15.8,41.8,24.6,91.9,6.4,161.8c-18.5,67.7-61.7,153.5-172.1,285.6h5
			c110.3-132.2,153.5-218,172.3-285.6C916.9,231.7,908.4,181.6,892.9,139.9z"/>
		<path class="st2" d="M905.1,140.3c-14-41.5-32.5-74.6-38.2-102.3c-3.1-14.2-3-26.7,1.6-37.9h-3.9c-4.2,11.1-4.1,23.5-1,37.5
			c5.9,27.9,24.6,61.2,38.6,102.8c15.1,41.4,23.1,91.4,4.2,161.7c-19.1,67.4-62.5,153.1-172.6,285.3h2.3
			C846.1,455.1,889.5,369.4,908.8,302C927.9,231.6,920,181.6,905.1,140.3z"/>
		<path class="st2" d="M929,141.4c-12.7-40.9-29.9-73-33.9-99.2c-2.7-16.4-0.4-30.4,9.1-42.1h-11.8c-7.7,11.6-9.2,25.1-6.3,40.8
			c4.5,26.7,22.2,59.1,35.1,100.3c14.1,40.9,21.3,90.8,1.3,161.6c-19.9,67.1-63.5,152.5-173.1,284.6h6.2
			C865.1,455.3,908.8,370,929,303.1C949.4,232,942.7,182.2,929,141.4z"/>
		<path class="st2" d="M944.3,142.4c-11.9-40.5-28.2-71.9-31-97.3C911,26.8,915.4,12,930.1,0h-2.9c-14.1,12-18.2,26.7-15.9,44.7
			c3,25.5,19.3,57,31.2,97.6c13,40.4,19.1,90.1-2.1,161.6c-20.8,66.6-64.6,151.7-173.5,283.4h1.3C877.1,455.7,921,370.7,941.8,304
			C963.1,232.5,957.2,182.8,944.3,142.4z"/>
		<path class="st2" d="M960.6,143.7c-11-40.1-26.3-70.9-27.9-95.4c-1.6-20.6,6.2-36.4,29.4-48.3h-6.3c-21.3,12-28.4,27.6-26.6,47.7
			c1.8,24.6,17.3,55.5,28.3,95.8c12.2,40.1,17.5,89.7-4.6,161.6c-21.4,66.3-65.4,151-173.6,282.2h2.5
			c108-131.1,152.1-215.7,173.7-282C977.7,233.4,972.5,183.7,960.6,143.7z"/>
		<path class="st2" d="M972.4,144.7c-10.3-39.9-24.9-70.1-25.5-94C945.9,28,957.4,11.6,990.1,0h-11c-28.7,11.7-38.7,27.9-37.5,49.9
			c1,24.1,15.8,54.5,26.2,94.6c11.6,39.9,16.4,89.4-6.4,161.6c-21.8,66-66,150.5-173.7,281.2h3.6
			c107.4-130.6,151.7-214.9,173.7-280.8C988.2,234.1,983.7,184.6,972.4,144.7z"/>
		<path class="st2" d="M964.6,54c-0.6,23,13.1,52.7,22.4,92.4c10.5,39.5,14.2,88.9-9.7,161.8c-22.6,65.5-67,149.4-173.6,279.2h0.6
			c106.6-129.8,150.9-213.7,173.6-279.2c24-72.9,20.4-122.4,10-161.8c-9.4-39.5-23-69.2-22.4-92.2c0.2-18.9,9.8-33,34.5-43.3v-0.7
			C974.6,20.5,964.8,34.8,964.6,54z"/>
		<path class="st2" d="M1000,121.5v-12.2c-5.4-20-9.6-36.5-8.1-50.2c0.7-7.7,3.3-14.5,8.1-20.5v-5.5c-7.4,7.1-11.1,15.4-11.9,25.3
			C986.5,75,993.1,95.5,1000,121.5z"/>
		<path class="st2" d="M819.8,587.3h2.6c105.2-128.5,149.7-211.6,173.3-276.5c1.5-4.3,2.9-8.6,4.2-12.8v-9.2c-2,7-4.3,14.1-6.8,21.6
			C969.8,375.4,925.3,458.6,819.8,587.3z"/>
		<path class="st2" d="M837.3,587.3C928.2,476,973.8,399,1000,338.4v-10.3c-25.4,62.2-70.8,141.6-167,259.2H837.3z"/>
		<path class="st2" d="M853.5,587.3c74.4-91.2,118.4-159.3,146.5-214v-3.7C972,425,927.8,494,851.7,587.3H853.5z"/>
		<path class="st2" d="M877.5,587.3c56-68.8,94.7-124.2,122.5-170.6v-4.9c-28,47.4-67.4,104.3-125.4,175.5H877.5z"/>
		<path class="st2" d="M893.4,587.3c46-56.6,80.3-104.1,106.6-144.9v-3.1c-26.5,41.5-61.4,90-108.5,148.1H893.4z"/>
		<path class="st2" d="M911.6,587.3c36.1-44.5,65-83.3,88.4-117.6v-9.6c-24.5,36.7-55.4,78.5-94.9,127.2H911.6z"/>
		<path class="st2" d="M925.5,587.3c29.3-36.1,53.8-68.4,74.5-97.6v-2.5c-21.1,29.9-46.2,63-76.3,100.1H925.5z"/>
	</g>
</g>
</svg>
